<svg width="100%" viewBox="0 0 680 410" xmlns="http://www.w3.org/2000/svg">
  <defs>
    <clipPath id="ls"><rect x="33" y="30" width="464" height="300" rx="3"/></clipPath>
    <clipPath id="ps"><rect x="483" y="94" width="139" height="282" rx="16"/></clipPath>

    <!-- Stat card gradients -->
    <linearGradient id="g-green" x1="0%" y1="0%" x2="100%" y2="100%">
      <stop offset="0%" stop-color="#22c55e"/><stop offset="100%" stop-color="#10b981"/>
    </linearGradient>
    <linearGradient id="g-blue" x1="0%" y1="0%" x2="100%" y2="100%">
      <stop offset="0%" stop-color="#3b82f6"/><stop offset="100%" stop-color="#06b6d4"/>
    </linearGradient>
    <linearGradient id="g-amber" x1="0%" y1="0%" x2="100%" y2="100%">
      <stop offset="0%" stop-color="#f59e0b"/><stop offset="100%" stop-color="#f97316"/>
    </linearGradient>
    <linearGradient id="g-purple" x1="0%" y1="0%" x2="100%" y2="100%">
      <stop offset="0%" stop-color="#a855f7"/><stop offset="100%" stop-color="#7c3aed"/>
    </linearGradient>

    <!-- Sidebar gradient -->
    <linearGradient id="g-sidebar" x1="0%" y1="0%" x2="0%" y2="100%">
      <stop offset="0%" stop-color="#0d3320"/><stop offset="100%" stop-color="#14532d"/>
    </linearGradient>

    <!-- Drop shadow filter -->
    <filter id="card-shadow" x="-5%" y="-5%" width="110%" height="130%">
      <feDropShadow dx="0" dy="1" stdDeviation="2" flood-color="#0000000a"/>
    </filter>
  </defs>

  <!-- ═══════════════════════════════════════════════ -->
  <!--                  LAPTOP BODY                   -->
  <!-- ═══════════════════════════════════════════════ -->
  <rect x="15" y="15" width="500" height="335" rx="12" fill="#1c1c1e"/>
  <circle cx="265" cy="23" r="2.5" fill="#3a3a3a"/>
  <rect x="26" y="24" width="478" height="314" rx="6" fill="#0f0f0f"/>

  <!-- Laptop screen content -->
  <g clip-path="url(#ls)">
    <!-- Page background -->
    <rect x="33" y="30" width="464" height="300" fill="#f1f5f9"/>

    <!-- ── Sidebar ── -->
    <rect x="33" y="30" width="92" height="300" fill="url(#g-sidebar)"/>

    <!-- Logo row -->
    <rect x="33" y="30" width="92" height="36" fill="#081f13"/>
    <!-- Logo mark: green rounded square -->
    <rect x="43" y="39" width="16" height="16" rx="4" fill="#22c55e"/>
    <!-- Leaf shape inside logo -->
    <ellipse cx="51" cy="47" rx="4" ry="5.5" fill="#14532d" transform="rotate(-30 51 47)"/>
    <ellipse cx="51" cy="47" rx="3" ry="4.5" fill="#22c55e" transform="rotate(15 51 47)"/>
    <text x="63" y="51" font-size="7.5" font-weight="700" font-family="system-ui,sans-serif" fill="#dcfce7" letter-spacing="0.3">LawnDesk</text>

    <!-- Active nav: Dashboard -->
    <rect x="37" y="72" width="82" height="18" rx="5" fill="#15803d"/>
    <!-- Dashboard icon: 3 tiny bars -->
    <rect x="46" y="76" width="3" height="5" rx="1" fill="#dcfce7"/>
    <rect x="50" y="78" width="3" height="3" rx="1" fill="#dcfce7"/>
    <rect x="54" y="75" width="3" height="6" rx="1" fill="#dcfce7"/>
    <text x="61" y="84" font-size="6.5" font-family="system-ui,sans-serif" fill="white" font-weight="600">Dashboard</text>

    <!-- Clients icon + text -->
    <!-- Person circle icon -->
    <circle cx="50" cy="104" r="3.5" fill="none" stroke="#86efac" stroke-width="1.2"/>
    <path d="M44 113 Q50 108 56 113" fill="none" stroke="#86efac" stroke-width="1.2"/>
    <text x="61" y="107" font-size="6.5" font-family="system-ui,sans-serif" fill="#86efac">Clients</text>

    <!-- Jobs: calendar icon -->
    <rect x="46" y="117" width="8" height="7" rx="1" fill="none" stroke="#86efac" stroke-width="1.2"/>
    <line x1="48" y1="116" x2="48" y2="118" stroke="#86efac" stroke-width="1.2"/>
    <line x1="52" y1="116" x2="52" y2="118" stroke="#86efac" stroke-width="1.2"/>
    <line x1="46" y1="121" x2="54" y2="121" stroke="#86efac" stroke-width="1"/>
    <text x="61" y="124" font-size="6.5" font-family="system-ui,sans-serif" fill="#86efac">Jobs</text>

    <!-- Calendar icon -->
    <rect x="46" y="133" width="8" height="7" rx="1" fill="none" stroke="#86efac" stroke-width="1.2"/>
    <line x1="46" y1="137" x2="54" y2="137" stroke="#86efac" stroke-width="1"/>
    <rect x="48" y="139" width="2" height="1.5" rx="0.5" fill="#86efac"/>
    <rect x="51" y="139" width="2" height="1.5" rx="0.5" fill="#86efac"/>
    <text x="61" y="140" font-size="6.5" font-family="system-ui,sans-serif" fill="#86efac">Calendar</text>

    <!-- Invoice: doc icon -->
    <rect x="46" y="149" width="7" height="9" rx="1" fill="none" stroke="#86efac" stroke-width="1.2"/>
    <line x1="48" y1="153" x2="51" y2="153" stroke="#86efac" stroke-width="1"/>
    <line x1="48" y1="155" x2="51" y2="155" stroke="#86efac" stroke-width="1"/>
    <line x1="48" y1="157" x2="50" y2="157" stroke="#86efac" stroke-width="1"/>
    <text x="61" y="157" font-size="6.5" font-family="system-ui,sans-serif" fill="#86efac">Invoices</text>

    <!-- Quotes -->
    <rect x="46" y="165" width="7" height="7" rx="1" fill="none" stroke="#86efac" stroke-width="1.2"/>
    <text x="48.5" y="171" font-size="5.5" font-family="system-ui,sans-serif" fill="#86efac">"</text>
    <text x="61" y="172" font-size="6.5" font-family="system-ui,sans-serif" fill="#86efac">Quotes</text>

    <!-- Team icon -->
    <circle cx="48" cy="185" r="2.5" fill="none" stroke="#86efac" stroke-width="1"/>
    <circle cx="53" cy="185" r="2" fill="none" stroke="#86efac" stroke-width="1"/>
    <text x="61" y="188" font-size="6.5" font-family="system-ui,sans-serif" fill="#86efac">Team</text>

    <!-- Settings: gear circle -->
    <circle cx="50" cy="200" r="3.5" fill="none" stroke="#86efac" stroke-width="1.2"/>
    <circle cx="50" cy="200" r="1.5" fill="#86efac"/>
    <text x="61" y="203" font-size="6.5" font-family="system-ui,sans-serif" fill="#86efac">Settings</text>

    <!-- Separator -->
    <line x1="40" y1="285" x2="118" y2="285" stroke="#1a5c35" stroke-width="0.5"/>

    <!-- User avatar at bottom -->
    <circle cx="50" cy="296" r="9" fill="#15803d"/>
    <text x="50" y="299.5" text-anchor="middle" font-size="7" font-weight="700" font-family="system-ui,sans-serif" fill="white">JD</text>
    <text x="63" y="293" font-size="6" font-family="system-ui,sans-serif" fill="#86efac">John D.</text>
    <text x="63" y="301" font-size="5.5" font-family="system-ui,sans-serif" fill="#4ade80">Pro Plan</text>

    <!-- ── Main content area ── -->
    <!-- Top header -->
    <rect x="125" y="30" width="372" height="32" fill="#ffffff"/>
    <line x1="125" y1="62" x2="497" y2="62" stroke="#e2e8f0" stroke-width="0.5"/>
    <text x="139" y="50" font-size="11" font-weight="700" font-family="system-ui,sans-serif" fill="#0f172a">Dashboard</text>
    <text x="485" y="46" text-anchor="end" font-size="6.5" font-family="system-ui,sans-serif" fill="#64748b">Today · Apr 5, 2026</text>
    <!-- Avatar in header -->
    <circle cx="490" cy="47" r="7" fill="#15803d"/>
    <text x="490" y="50" text-anchor="middle" font-size="5.5" font-weight="700" font-family="system-ui,sans-serif" fill="white">JD</text>

    <!-- ── Stat cards ── -->
    <!-- Card 1: Total Clients (green) -->
    <rect x="133" y="70" width="84" height="52" rx="8" fill="url(#g-green)" filter="url(#card-shadow)"/>
    <!-- Icon: people shape -->
    <circle cx="146" cy="82" r="4" fill="rgba(255,255,255,0.35)"/>
    <circle cx="153" cy="80" r="3" fill="rgba(255,255,255,0.25)"/>
    <text x="175" y="85" text-anchor="middle" font-size="17" font-weight="800" font-family="system-ui,sans-serif" fill="white">24</text>
    <text x="175" y="96" text-anchor="middle" font-size="5.5" font-family="system-ui,sans-serif" fill="rgba(255,255,255,0.85)" letter-spacing="0.2">TOTAL CLIENTS</text>
    <text x="140" y="113" font-size="5.5" font-family="system-ui,sans-serif" fill="rgba(255,255,255,0.75)">View all →</text>

    <!-- Card 2: Jobs This Week (blue) -->
    <rect x="223" y="70" width="84" height="52" rx="8" fill="url(#g-blue)" filter="url(#card-shadow)"/>
    <!-- Icon: calendar shape -->
    <rect x="234" y="77" width="10" height="9" rx="2" fill="rgba(255,255,255,0.3)"/>
    <line x1="234" y1="81" x2="244" y2="81" stroke="rgba(255,255,255,0.5)" stroke-width="0.8"/>
    <text x="265" y="85" text-anchor="middle" font-size="17" font-weight="800" font-family="system-ui,sans-serif" fill="white">9</text>
    <text x="265" y="96" text-anchor="middle" font-size="5.5" font-family="system-ui,sans-serif" fill="rgba(255,255,255,0.85)" letter-spacing="0.2">JOBS THIS WEEK</text>
    <text x="230" y="113" font-size="5.5" font-family="system-ui,sans-serif" fill="rgba(255,255,255,0.75)">View all →</text>

    <!-- Card 3: Unpaid Invoices (amber) -->
    <rect x="313" y="70" width="84" height="52" rx="8" fill="url(#g-amber)" filter="url(#card-shadow)"/>
    <!-- Icon: alert circle -->
    <circle cx="325" cy="82" r="5" fill="rgba(255,255,255,0.3)"/>
    <text x="325" y="85" text-anchor="middle" font-size="7" font-weight="700" font-family="system-ui,sans-serif" fill="white">!</text>
    <text x="355" y="85" text-anchor="middle" font-size="17" font-weight="800" font-family="system-ui,sans-serif" fill="white">3</text>
    <text x="355" y="96" text-anchor="middle" font-size="5.5" font-family="system-ui,sans-serif" fill="rgba(255,255,255,0.85)" letter-spacing="0.2">UNPAID INVOICES</text>
    <text x="320" y="113" font-size="5.5" font-family="system-ui,sans-serif" fill="rgba(255,255,255,0.75)">View all →</text>

    <!-- Card 4: Revenue (purple) -->
    <rect x="403" y="70" width="84" height="52" rx="8" fill="url(#g-purple)" filter="url(#card-shadow)"/>
    <!-- Icon: dollar -->
    <circle cx="414" cy="82" r="5" fill="rgba(255,255,255,0.3)"/>
    <text x="414" y="85.5" text-anchor="middle" font-size="7" font-weight="700" font-family="system-ui,sans-serif" fill="white">$</text>
    <text x="445" y="83" text-anchor="middle" font-size="13" font-weight="800" font-family="system-ui,sans-serif" fill="white">$2,840</text>
    <text x="445" y="96" text-anchor="middle" font-size="5.5" font-family="system-ui,sans-serif" fill="rgba(255,255,255,0.85)" letter-spacing="0.2">REVENUE</text>
    <text x="410" y="113" font-size="5.5" font-family="system-ui,sans-serif" fill="rgba(255,255,255,0.75)">View all →</text>

    <!-- ── Upcoming Jobs card ── -->
    <rect x="133" y="132" width="220" height="162" rx="8" fill="#ffffff" filter="url(#card-shadow)"/>
    <!-- Card header -->
    <rect x="133" y="132" width="220" height="24" rx="8" fill="#ffffff"/>
    <rect x="133" y="148" width="220" height="8" fill="#ffffff"/>
    <line x1="133" y1="156" x2="353" y2="156" stroke="#f1f5f9" stroke-width="1"/>
    <!-- Calendar icon in header -->
    <rect x="142" y="138" width="8" height="7" rx="1.5" fill="#e2e8f0"/>
    <rect x="143" y="137" width="1.5" height="2" rx="0.5" fill="#94a3b8"/>
    <rect x="147" y="137" width="1.5" height="2" rx="0.5" fill="#94a3b8"/>
    <text x="154" y="145" font-size="7.5" font-weight="700" font-family="system-ui,sans-serif" fill="#0f172a">Upcoming Jobs</text>
    <rect x="321" y="138" width="28" height="12" rx="6" fill="#f0fdf4"/>
    <text x="335" y="146" text-anchor="middle" font-size="6" font-weight="600" font-family="system-ui,sans-serif" fill="#16a34a">+ New</text>

    <!-- Job row 1 -->
    <rect x="141" y="160" width="3" height="22" rx="1.5" fill="#3b82f6"/>
    <text x="149" y="169" font-size="7" font-weight="600" font-family="system-ui,sans-serif" fill="#0f172a">Lawn Mowing</text>
    <text x="149" y="179" font-size="6" font-family="system-ui,sans-serif" fill="#64748b">Tom Harrington · Today 9:00am</text>
    <rect x="310" y="161" width="36" height="12" rx="6" fill="#dcfce7"/>
    <text x="328" y="169.5" text-anchor="middle" font-size="5.5" font-weight="600" font-family="system-ui,sans-serif" fill="#16a34a">Scheduled</text>

    <!-- Job row 2 -->
    <line x1="141" y1="186" x2="347" y2="186" stroke="#f1f5f9" stroke-width="0.8"/>
    <rect x="141" y="190" width="3" height="22" rx="1.5" fill="#10b981"/>
    <text x="149" y="199" font-size="7" font-weight="600" font-family="system-ui,sans-serif" fill="#0f172a">Hedge Trimming</text>
    <text x="149" y="209" font-size="6" font-family="system-ui,sans-serif" fill="#64748b">Linda Cortez · Tomorrow 8:00am</text>
    <rect x="310" y="191" width="36" height="12" rx="6" fill="#dcfce7"/>
    <text x="328" y="199.5" text-anchor="middle" font-size="5.5" font-weight="600" font-family="system-ui,sans-serif" fill="#16a34a">Scheduled</text>

    <!-- Job row 3 -->
    <line x1="141" y1="216" x2="347" y2="216" stroke="#f1f5f9" stroke-width="0.8"/>
    <rect x="141" y="220" width="3" height="22" rx="1.5" fill="#a855f7"/>
    <text x="149" y="229" font-size="7" font-weight="600" font-family="system-ui,sans-serif" fill="#0f172a">Spring Cleanup</text>
    <text x="149" y="239" font-size="6" font-family="system-ui,sans-serif" fill="#64748b">Sandra Nguyen · Fri 9:30am</text>
    <rect x="304" y="221" width="42" height="12" rx="6" fill="#fef9c3"/>
    <text x="325" y="229.5" text-anchor="middle" font-size="5.5" font-weight="600" font-family="system-ui,sans-serif" fill="#a16207">In Progress</text>

    <!-- Job row 4 -->
    <line x1="141" y1="246" x2="347" y2="246" stroke="#f1f5f9" stroke-width="0.8"/>
    <rect x="141" y="250" width="3" height="22" rx="1.5" fill="#f59e0b"/>
    <text x="149" y="259" font-size="7" font-weight="600" font-family="system-ui,sans-serif" fill="#0f172a">Leaf Blowing</text>
    <text x="149" y="269" font-size="6" font-family="system-ui,sans-serif" fill="#64748b">Marcus Webb · Sat 10:00am</text>
    <rect x="310" y="251" width="36" height="12" rx="6" fill="#dcfce7"/>
    <text x="328" y="259.5" text-anchor="middle" font-size="5.5" font-weight="600" font-family="system-ui,sans-serif" fill="#16a34a">Scheduled</text>

    <!-- ── Right column ── -->

    <!-- Quick Actions card -->
    <rect x="361" y="132" width="128" height="92" rx="8" fill="#ffffff" filter="url(#card-shadow)"/>
    <line x1="361" y1="156" x2="489" y2="156" stroke="#f1f5f9" stroke-width="1"/>
    <!-- Zap icon -->
    <path d="M371 138 L374 143 L370 143 L373 148 L369 143 L373 143 Z" fill="#eab308" stroke="#eab308" stroke-width="0.3"/>
    <text x="378" y="145" font-size="7.5" font-weight="700" font-family="system-ui,sans-serif" fill="#0f172a">Quick Actions</text>

    <rect x="369" y="161" width="112" height="16" rx="5" fill="#15803d"/>
    <text x="425" y="172" text-anchor="middle" font-size="6.5" font-weight="600" font-family="system-ui,sans-serif" fill="white">+ Add Client</text>

    <rect x="369" y="181" width="112" height="16" rx="5" fill="#1d4ed8"/>
    <text x="425" y="192" text-anchor="middle" font-size="6.5" font-weight="600" font-family="system-ui,sans-serif" fill="white">+ Schedule Job</text>

    <rect x="369" y="201" width="112" height="16" rx="5" fill="#7c3aed"/>
    <text x="425" y="212" text-anchor="middle" font-size="6.5" font-weight="600" font-family="system-ui,sans-serif" fill="white">+ Create Invoice</text>

    <!-- Overdue card -->
    <rect x="361" y="232" width="128" height="62" rx="8" fill="#ffffff" filter="url(#card-shadow)"/>
    <line x1="361" y1="252" x2="489" y2="252" stroke="#f1f5f9" stroke-width="1"/>
    <!-- Alert dot -->
    <circle cx="371" cy="242" r="3.5" fill="#ef4444"/>
    <text x="372" y="244.5" text-anchor="middle" font-size="5.5" font-weight="700" font-family="system-ui,sans-serif" fill="white">!</text>
    <text x="378" y="245" font-size="7.5" font-weight="700" font-family="system-ui,sans-serif" fill="#0f172a">Overdue</text>
    <text x="369" y="261" font-size="7" font-family="system-ui,sans-serif" fill="#374151">Tom Harrington</text>
    <text x="487" y="261" text-anchor="end" font-size="7" font-weight="700" font-family="system-ui,sans-serif" fill="#ef4444">$65.00</text>
    <text x="369" y="273" font-size="6" font-family="system-ui,sans-serif" fill="#94a3b8">Due Mar 28 · </text>
    <text x="404" y="273" font-size="6" font-family="system-ui,sans-serif" fill="#ef4444">3 days late</text>

    <!-- Recent activity feed (bottom) -->
    <rect x="361" y="302" width="128" height="30" rx="8" fill="#f0fdf4"/>
    <circle cx="371" cy="317" r="4" fill="#22c55e"/>
    <text x="371" y="319.5" text-anchor="middle" font-size="5.5" font-weight="700" font-family="system-ui,sans-serif" fill="white">✓</text>
    <text x="379" y="315" font-size="6" font-weight="600" font-family="system-ui,sans-serif" fill="#15803d">Invoice #42 paid</text>
    <text x="379" y="324" font-size="5.5" font-family="system-ui,sans-serif" fill="#4ade80">$120.00 · just now</text>

  </g>

  <!-- Laptop base -->
  <rect x="0" y="350" width="530" height="24" rx="4" fill="#1c1c1e"/>
  <line x1="0" y1="350" x2="530" y2="350" stroke="#333" stroke-width="1"/>
  <rect x="210" y="357" width="120" height="10" rx="3" fill="#282828"/>

  <!-- ═══════════════════════════════════════════════ -->
  <!--                  PHONE BODY                    -->
  <!-- ═══════════════════════════════════════════════ -->
  <rect x="475" y="65" width="155" height="330" rx="24" fill="#1c1c1e"/>
  <rect x="471" y="128" width="4" height="24" rx="2" fill="#2d2d2d"/>
  <rect x="471" y="158" width="4" height="24" rx="2" fill="#2d2d2d"/>
  <rect x="630" y="148" width="4" height="36" rx="2" fill="#2d2d2d"/>

  <!-- Phone screen -->
  <g clip-path="url(#ps)">
    <rect x="483" y="94" width="139" height="282" fill="#f1f5f9"/>

    <!-- Phone top bar -->
    <rect x="483" y="94" width="139" height="32" fill="#0d3320"/>
    <!-- Dynamic island / notch -->
    <rect x="529" y="97" width="42" height="10" rx="5" fill="#0a0a0a"/>
    <!-- Logo -->
    <rect x="490" y="101" width="10" height="10" rx="2.5" fill="#22c55e"/>
    <ellipse cx="495" cy="106" rx="2.5" ry="3.5" fill="#14532d" transform="rotate(-30 495 106)"/>
    <ellipse cx="495" cy="106" rx="2" ry="3" fill="#22c55e" transform="rotate(15 495 106)"/>
    <text x="504" y="109" font-size="6.5" font-weight="700" font-family="system-ui,sans-serif" fill="#dcfce7">LawnDesk</text>
    <!-- Avatar -->
    <circle cx="614" cy="109" r="6" fill="#15803d"/>
    <text x="614" y="111.5" text-anchor="middle" font-size="5" font-weight="700" font-family="system-ui,sans-serif" fill="white">JD</text>

    <!-- Page title -->
    <rect x="483" y="126" width="139" height="16" fill="#f1f5f9"/>
    <text x="490" y="137" font-size="8" font-weight="700" font-family="system-ui,sans-serif" fill="#0f172a">Dashboard</text>
    <text x="618" y="137" text-anchor="end" font-size="5.5" font-family="system-ui,sans-serif" fill="#64748b">Apr 5</text>

    <!-- Phone stat cards 2x2 grid -->
    <!-- Row 1 -->
    <rect x="488" y="145" width="59" height="40" rx="7" fill="url(#g-green)"/>
    <text x="517" y="160" text-anchor="middle" font-size="13" font-weight="800" font-family="system-ui,sans-serif" fill="white">24</text>
    <text x="517" y="171" text-anchor="middle" font-size="5" font-family="system-ui,sans-serif" fill="rgba(255,255,255,0.85)">Clients</text>
    <!-- Tiny icon -->
    <circle cx="498" cy="151" r="3" fill="rgba(255,255,255,0.25)"/>

    <rect x="553" y="145" width="59" height="40" rx="7" fill="url(#g-blue)"/>
    <text x="582" y="160" text-anchor="middle" font-size="13" font-weight="800" font-family="system-ui,sans-serif" fill="white">9</text>
    <text x="582" y="171" text-anchor="middle" font-size="5" font-family="system-ui,sans-serif" fill="rgba(255,255,255,0.85)">Jobs</text>
    <rect x="562" y="148" width="6" height="5" rx="1" fill="rgba(255,255,255,0.25)"/>

    <!-- Row 2 -->
    <rect x="488" y="190" width="59" height="40" rx="7" fill="url(#g-amber)"/>
    <text x="517" y="205" text-anchor="middle" font-size="13" font-weight="800" font-family="system-ui,sans-serif" fill="white">3</text>
    <text x="517" y="216" text-anchor="middle" font-size="5" font-family="system-ui,sans-serif" fill="rgba(255,255,255,0.85)">Unpaid</text>
    <circle cx="498" cy="196" r="3" fill="rgba(255,255,255,0.25)"/>
    <text x="498" y="198.5" text-anchor="middle" font-size="5.5" font-weight="700" font-family="system-ui,sans-serif" fill="white">!</text>

    <rect x="553" y="190" width="59" height="40" rx="7" fill="url(#g-purple)"/>
    <text x="582" y="203" text-anchor="middle" font-size="10" font-weight="800" font-family="system-ui,sans-serif" fill="white">$2,840</text>
    <text x="582" y="216" text-anchor="middle" font-size="5" font-family="system-ui,sans-serif" fill="rgba(255,255,255,0.85)">Revenue</text>
    <circle cx="563" cy="196" r="3" fill="rgba(255,255,255,0.25)"/>
    <text x="563" y="198.5" text-anchor="middle" font-size="5.5" font-weight="700" font-family="system-ui,sans-serif" fill="white">$</text>

    <!-- Phone jobs list card -->
    <rect x="488" y="238" width="124" height="112" rx="7" fill="#ffffff" filter="url(#card-shadow)"/>
    <line x1="488" y1="252" x2="612" y2="252" stroke="#f1f5f9" stroke-width="0.8"/>
    <rect x="492" y="240" width="6" height="5" rx="1" fill="#e2e8f0"/>
    <text x="502" y="247" font-size="6.5" font-weight="700" font-family="system-ui,sans-serif" fill="#0f172a">Upcoming Jobs</text>

    <!-- Phone job rows -->
    <rect x="492" y="256" width="2.5" height="16" rx="1.2" fill="#3b82f6"/>
    <text x="499" y="263" font-size="6" font-weight="600" font-family="system-ui,sans-serif" fill="#0f172a">Lawn Mowing</text>
    <text x="499" y="270" font-size="5.5" font-family="system-ui,sans-serif" fill="#64748b">Tom H. · Today 9am</text>

    <line x1="492" y1="276" x2="610" y2="276" stroke="#f1f5f9" stroke-width="0.6"/>
    <rect x="492" y="280" width="2.5" height="16" rx="1.2" fill="#10b981"/>
    <text x="499" y="287" font-size="6" font-weight="600" font-family="system-ui,sans-serif" fill="#0f172a">Hedge Trimming</text>
    <text x="499" y="294" font-size="5.5" font-family="system-ui,sans-serif" fill="#64748b">Linda C. · Tomorrow</text>

    <line x1="492" y1="300" x2="610" y2="300" stroke="#f1f5f9" stroke-width="0.6"/>
    <rect x="492" y="304" width="2.5" height="16" rx="1.2" fill="#a855f7"/>
    <text x="499" y="311" font-size="6" font-weight="600" font-family="system-ui,sans-serif" fill="#0f172a">Spring Cleanup</text>
    <text x="499" y="318" font-size="5.5" font-family="system-ui,sans-serif" fill="#64748b">Sandra N. · Fri 9:30am</text>

    <line x1="492" y1="324" x2="610" y2="324" stroke="#f1f5f9" stroke-width="0.6"/>
    <rect x="492" y="328" width="2.5" height="16" rx="1.2" fill="#f59e0b"/>
    <text x="499" y="335" font-size="6" font-weight="600" font-family="system-ui,sans-serif" fill="#0f172a">Leaf Blowing</text>
    <text x="499" y="342" font-size="5.5" font-family="system-ui,sans-serif" fill="#64748b">Marcus W. · Sat 10am</text>

    <!-- Phone bottom nav -->
    <rect x="483" y="354" width="139" height="22" fill="#0d3320"/>
    <!-- Nav dots with labels -->
    <circle cx="501" cy="362" r="4.5" fill="#15803d"/>
    <text x="501" y="375" text-anchor="middle" font-size="5" font-family="system-ui,sans-serif" fill="#dcfce7">Home</text>
    <text x="521" y="375" text-anchor="middle" font-size="5" font-family="system-ui,sans-serif" fill="#4ade80">Clients</text>
    <text x="543" y="375" text-anchor="middle" font-size="5" font-family="system-ui,sans-serif" fill="#4ade80">Jobs</text>
    <text x="565" y="375" text-anchor="middle" font-size="5" font-family="system-ui,sans-serif" fill="#4ade80">Invoice</text>
    <text x="592" y="375" text-anchor="middle" font-size="5" font-family="system-ui,sans-serif" fill="#4ade80">Settings</text>

  </g>

  <!-- Phone home indicator -->
  <rect x="525" y="382" width="58" height="4" rx="2" fill="#3a3a3a"/>
</svg>
